<svg width="1024" height="1024" viewBox="0 0 1024 1024" fill="none" xmlns="http://www.w3.org/2000/svg">
<g filter="url(#filter0_d_314_78)">
<path d="M100 284C100 182.38 182.38 100 284 100H740C841.62 100 924 182.38 924 284V740C924 841.62 841.62 924 740 924H284C182.38 924 100 841.62 100 740V284Z" fill="#16161E"/>
<path d="M678.006 803.78C678.049 803.78 678.082 803.818 678.076 803.861C673.85 834.4 643.781 858.33 613.713 849.969C571.064 838.381 521.656 820.034 477.237 816.655L409 811.505C398.038 810.733 387.736 805.983 380.031 798.147L262.547 677.766C256.308 671.353 252.142 663.212 250.592 654.4C249.067 645.73 250.144 636.805 253.681 628.751C253.797 628.488 253.891 628.282 254.01 628.021C257.691 619.953 326.356 469.453 329.175 461.466C331.75 453.258 341.728 381.158 347.522 342.533C349.146 332.277 354.263 322.896 362.006 315.978L500.734 191.734C505.305 187.634 510.665 184.512 516.486 182.558C522.308 180.604 528.466 179.861 534.585 180.373C540.704 180.885 546.653 182.643 552.069 185.538C557.484 188.432 562.25 192.403 566.075 197.206L682.916 344.625C689.454 353.044 692.968 363.418 692.894 374.077C692.894 401.919 695.308 459.373 710.919 496.389C726.409 529.679 745.63 561.103 768.213 590.055C770.947 593.605 772.561 597.89 772.848 602.362C773.134 606.835 772.081 611.291 769.822 615.161C759.683 632.381 739.405 665.534 710.919 707.861C692.899 736.941 681.628 769.691 677.935 803.701C677.931 803.743 677.964 803.78 678.006 803.78Z" fill="black" fill-opacity="0.3"/>
<path d="M679.214 798.63C675.03 829.369 644.934 853.348 614.839 845.141C572.352 833.392 523.105 815.045 478.525 811.666L410.448 806.516C399.461 805.716 389.151 800.904 381.48 792.997L263.995 672.294C257.695 665.817 253.496 657.591 251.945 648.69C250.395 639.79 251.566 630.628 255.305 622.403C255.305 622.403 327.888 463.075 330.623 454.706C333.359 446.498 343.177 374.237 348.97 335.291C350.559 324.977 355.679 315.534 363.455 308.575L502.183 183.848C506.764 179.757 512.133 176.646 517.96 174.705C523.787 172.765 529.95 172.036 536.069 172.563C542.188 173.091 548.135 174.864 553.544 177.773C558.953 180.682 563.71 184.667 567.523 189.481L684.203 337.544C690.719 345.974 694.231 356.34 694.181 366.995C694.181 394.998 696.595 452.614 712.045 489.791C727.524 523.238 746.745 554.822 769.339 583.939C772.133 587.488 773.795 591.795 774.111 596.3C774.427 600.806 773.381 605.302 771.109 609.206C760.809 626.587 740.692 659.741 712.045 702.389C694.077 731.627 682.861 764.506 679.214 798.63Z" fill="#BB9AF7"/>
<path d="M381.48 792.997C387.531 799.048 397.15 795.744 400.737 787.975C448.426 684.691 446.143 609.691 423.806 555.775C404.254 507.784 369.025 476.152 339.197 455.484C335.568 452.969 330.572 455.057 328.692 459.052L255.305 622.403C251.586 630.644 250.441 639.815 252.021 648.716C253.6 657.618 257.83 665.835 264.156 672.294L381.48 792.997Z" fill="url(#paint0_radial_314_78)"/>
<path d="M542.417 577.662C557.062 579.111 571.386 582.33 585.548 587.48C627.59 603.208 666.08 637.41 698.479 701.703C701.159 707.021 708.742 707.343 712.045 702.389C732.601 671.887 752.297 640.813 771.109 609.206C773.403 605.318 774.476 600.83 774.189 596.325C773.902 591.82 772.269 587.505 769.5 583.939C746.85 554.83 727.575 523.245 712.045 489.791C696.595 452.775 694.342 394.998 694.181 366.995C694.181 356.373 690.802 345.913 684.203 337.544L567.523 189.481L565.592 187.067C574.122 215.231 573.639 237.763 568.328 258.202C563.5 277.192 554.487 294.412 544.992 312.598C541.773 318.714 538.555 324.991 535.497 331.428C520.362 360.334 511.686 392.183 510.069 424.772C508.459 463.719 516.345 512.483 542.256 577.662H542.417Z" fill="url(#paint1_radial_314_78)"/>
<path d="M542.256 577.662C516.345 512.483 508.459 463.719 510.069 424.772C511.678 386.147 522.944 357.178 535.497 331.428L545.153 312.598C554.487 294.413 563.339 277.192 568.328 258.202C574.253 234.718 573.304 210.026 565.592 187.067C557.587 178.271 546.429 172.997 534.551 172.394C522.673 171.791 511.038 175.909 502.183 183.848L363.455 308.575C355.679 315.534 350.559 324.977 348.97 335.291L332.123 446.964C332.089 447.19 332.075 447.426 332.062 447.653C331.961 449.429 332.54 451.136 334.024 452.118C364.843 472.508 402.954 504.974 423.806 555.614C427.991 565.914 431.531 576.697 434.106 588.445C469.223 578.707 505.739 575.003 542.096 577.491C542.186 577.497 542.256 577.572 542.256 577.662Z" fill="url(#paint2_radial_314_78)"/>
<path d="M615 845.141C644.934 853.348 675.03 829.369 679.214 798.469C685.682 743.144 694.553 681.98 658.204 639.774C635.704 613.649 611.345 597.105 585.709 587.48C538.233 569.777 486.572 575.731 434.106 588.445C445.183 638.67 439.665 703.487 401.5 786.673C397.571 795.238 401.06 805.711 410.448 806.516L481.1 811.827C519.403 814.562 576.536 834.358 615 845.141Z" fill="url(#paint3_radial_314_78)"/>
<path fill-rule="evenodd" clip-rule="evenodd" d="M510.311 422.358C510.354 422.358 510.389 422.394 510.387 422.437C508.676 459.959 513.2 502.653 537.227 564.674C538.186 567.147 536.206 569.783 533.567 569.519C532.193 569.382 531.016 568.435 530.569 567.128C507.867 500.794 502.846 466.358 504.597 427.669C506.206 388.561 518.92 358.466 531.473 332.716C534.692 326.278 542.095 314.208 545.314 308.092C554.648 289.906 560.925 280.411 566.236 263.834C573.961 240.659 572.352 229.716 571.386 218.772C577.341 258.202 554.648 292.481 537.589 327.405C521.809 356.716 512.482 389.064 510.235 422.277C510.232 422.321 510.267 422.358 510.311 422.358Z" fill="url(#paint4_radial_314_78)"/>
<path fill-rule="evenodd" clip-rule="evenodd" d="M431.531 558.511C434.308 564.62 436.725 569.77 438.577 576.753C439.086 578.673 437.862 580.599 435.927 581.049C434.016 581.494 432.098 580.338 431.586 578.444C429.261 569.847 427.212 563.139 423.645 555.292C400.148 500.091 362.489 471.605 331.911 450.683C368.927 470.639 407.069 502.022 431.531 558.511Z" fill="url(#paint5_radial_314_78)"/>
<path fill-rule="evenodd" clip-rule="evenodd" d="M439.739 587.306C439.739 587.314 439.74 587.323 439.742 587.331C452.612 647.681 438.127 724.443 395.481 799.112C431.209 725.081 448.591 654.108 434.106 588.284L439.594 587.187C439.669 587.172 439.739 587.229 439.739 587.306Z" fill="url(#paint6_radial_314_78)"/>
<path fill-rule="evenodd" clip-rule="evenodd" d="M587.158 581.766C587.158 581.727 587.198 581.701 587.234 581.714C657.185 607.96 684.21 665.391 704.32 713.494C679.375 663.281 644.773 607.758 584.583 587.158C538.877 571.386 500.252 573.317 434.106 588.284C433.305 584.725 435.533 581.185 439.094 580.39C505.078 565.661 540.959 564.383 587.082 581.818C587.118 581.832 587.158 581.805 587.158 581.766Z" fill="url(#paint7_radial_314_78)"/>
</g>
<defs>
<filter id="filter0_d_314_78" x="-4" y="0" width="1032" height="1032" filterUnits="userSpaceOnUse" color-interpolation-filters="sRGB">
<feFlood flood-opacity="0" result="BackgroundImageFix"/>
<feColorMatrix in="SourceAlpha" type="matrix" values="0 0 0 0 0 0 0 0 0 0 0 0 0 0 0 0 0 0 127 0" result="hardAlpha"/>
<feOffset dy="4"/>
<feGaussianBlur stdDeviation="2"/>
<feComposite in2="hardAlpha" operator="out"/>
<feColorMatrix type="matrix" values="0 0 0 0 0 0 0 0 0 0 0 0 0 0 0 0 0 0 0.25 0"/>
<feBlend mode="normal" in2="BackgroundImageFix" result="effect1_dropShadow_314_78"/>
<feBlend mode="normal" in="SourceGraphic" in2="effect1_dropShadow_314_78" result="shape"/>
</filter>
<radialGradient id="paint0_radial_314_78" cx="0" cy="0" r="1" gradientUnits="userSpaceOnUse" gradientTransform="translate(700.026 898.733) rotate(-115.913) scale(775.649 833.993)">
<stop stop-color="white" stop-opacity="0.4"/>
<stop offset="1" stop-opacity="0.1"/>
</radialGradient>
<radialGradient id="paint1_radial_314_78" cx="0" cy="0" r="1" gradientUnits="userSpaceOnUse" gradientTransform="translate(536.033 846.805) rotate(-75.2196) scale(806.169 1129.96)">
<stop stop-color="white" stop-opacity="0.6"/>
<stop offset="1" stop-color="white" stop-opacity="0.1"/>
</radialGradient>
<radialGradient id="paint2_radial_314_78" cx="0" cy="0" r="1" gradientUnits="userSpaceOnUse" gradientTransform="translate(356.87 900.416) rotate(-69.3068) scale(889.161 961.799)">
<stop stop-color="white" stop-opacity="0.8"/>
<stop offset="1" stop-color="white" stop-opacity="0.4"/>
</radialGradient>
<radialGradient id="paint3_radial_314_78" cx="0" cy="0" r="1" gradientUnits="userSpaceOnUse" gradientTransform="translate(691.743 923.948) rotate(-117.339) scale(734.412 783.004)">
<stop stop-color="white" stop-opacity="0.3"/>
<stop offset="1" stop-opacity="0.3"/>
</radialGradient>
<radialGradient id="paint4_radial_314_78" cx="0" cy="0" r="1" gradientUnits="userSpaceOnUse" gradientTransform="translate(1064.19 386.494) rotate(137.737) scale(763.305 1261.11)">
<stop stop-color="white" stop-opacity="0"/>
<stop offset="1" stop-color="white" stop-opacity="0.2"/>
</radialGradient>
<radialGradient id="paint5_radial_314_78" cx="0" cy="0" r="1" gradientUnits="userSpaceOnUse" gradientTransform="translate(22.2874 171.784) rotate(39.7271) scale(1154.79 2411.72)">
<stop stop-color="white" stop-opacity="0.2"/>
<stop offset="1" stop-color="white" stop-opacity="0.4"/>
</radialGradient>
<radialGradient id="paint6_radial_314_78" cx="0" cy="0" r="1" gradientUnits="userSpaceOnUse" gradientTransform="translate(956.152 -82.694) rotate(53.6363) scale(916.816 5653.09)">
<stop stop-color="white" stop-opacity="0.1"/>
<stop offset="1" stop-color="white" stop-opacity="0.3"/>
</radialGradient>
<radialGradient id="paint7_radial_314_78" cx="0" cy="0" r="1" gradientUnits="userSpaceOnUse" gradientTransform="translate(702.55 697.883) rotate(-152.314) scale(294.428 927.206)">
<stop stop-color="white" stop-opacity="0.2"/>
<stop offset="0.5" stop-color="white" stop-opacity="0.2"/>
<stop offset="1" stop-color="white" stop-opacity="0.3"/>
</radialGradient>
</defs>
</svg>
